<svg width="24" height="24" viewBox="0 0 24 24" fill="none" xmlns="http://www.w3.org/2000/svg">
<path d="M19.5 15.075V8.25C19.5 7.25544 19.1049 6.30161 18.4016 5.59835C17.6984 4.89509 16.7446 4.5 15.75 4.5H13.065L14.775 2.775C15.075 2.49 15.075 2.01 14.775 1.725C14.49 1.425 14.01 1.425 13.725 1.725L10.725 4.725C10.425 5.01 10.425 5.49 10.725 5.775L13.725 8.775C14.01 9.075 14.49 9.075 14.775 8.775C15.075 8.49 15.075 8.01 14.775 7.725L13.065 6H15.75C16.995 6 18 7.005 18 8.25V15.075C17.0895 15.2609 16.2804 15.7782 15.7296 16.5267C15.1788 17.2752 14.9256 18.2015 15.019 19.1261C15.1124 20.0507 15.5458 20.9077 16.2351 21.531C16.9245 22.1542 17.8207 22.4992 18.75 22.4992C19.6793 22.4992 20.5755 22.1542 21.2649 21.531C21.9542 20.9077 22.3876 20.0507 22.481 19.1261C22.5744 18.2015 22.3212 17.2752 21.7704 16.5267C21.2196 15.7782 20.4105 15.2609 19.5 15.075ZM18.75 21C17.505 21 16.5 19.995 16.5 18.75C16.5 17.505 17.505 16.5 18.75 16.5C19.995 16.5 21 17.505 21 18.75C21 19.995 19.995 21 18.75 21ZM9 5.25C8.99985 4.54048 8.79842 3.84555 8.4191 3.24594C8.03977 2.64633 7.49812 2.16663 6.85706 1.86257C6.21599 1.55851 5.50181 1.44255 4.79748 1.52817C4.09314 1.61379 3.42754 1.89747 2.878 2.34627C2.32845 2.79507 1.9175 3.39056 1.69288 4.06359C1.46826 4.73662 1.43918 5.45956 1.60903 6.14846C1.77888 6.83735 2.14068 7.46392 2.65241 7.9554C3.16415 8.44688 3.80481 8.7831 4.5 8.925V15.0765C2.79 15.4245 1.5 16.9395 1.5 18.75C1.5 20.8185 3.183 22.5 5.25 22.5C7.317 22.5 9 20.8185 9 18.75C9 16.938 7.71 15.4245 6 15.0765V8.925C6.84702 8.7521 7.6083 8.29186 8.15498 7.62218C8.70166 6.95249 9.00018 6.11449 9 5.25ZM3 5.25C3 4.005 4.005 3 5.25 3C6.495 3 7.5 4.005 7.5 5.25C7.5 6.495 6.495 7.5 5.25 7.5C4.005 7.5 3 6.495 3 5.25ZM7.5 18.75C7.5 19.9905 6.4905 21 5.25 21C4.0095 21 3 19.9905 3 18.75C3 17.5095 4.0095 16.5 5.25 16.5C6.4905 16.5 7.5 17.5095 7.5 18.75Z" fill="white"/>
</svg>
